<svg width="21" height="15" viewBox="0 0 21 15" fill="none" xmlns="http://www.w3.org/2000/svg">
<path d="M17.2655 1.75121C15.9905 1.19753 14.6238 0.788294 13.1947 0.55559C13.182 0.553237 13.1688 0.554753 13.157 0.559929C13.1452 0.565105 13.1354 0.573683 13.1288 0.584477C12.9539 0.880573 12.7589 1.26654 12.6222 1.57146C11.1065 1.35339 9.56549 1.35339 8.04976 1.57146C7.89754 1.23353 7.72589 0.904023 7.5356 0.584477C7.52915 0.57355 7.51939 0.564778 7.50763 0.559329C7.49587 0.553881 7.48266 0.552017 7.46977 0.553985C6.04146 0.786689 4.67481 1.19593 3.39899 1.7504C3.38802 1.75484 3.37871 1.7624 3.37233 1.77207C0.779033 5.44318 0.0682105 9.02361 0.417372 12.5591C0.418344 12.5678 0.421135 12.5761 0.425576 12.5837C0.430017 12.5913 0.436015 12.598 0.443205 12.6032C1.95684 13.6644 3.6451 14.4727 5.4373 14.9945C5.44979 14.9982 5.46315 14.9982 5.47564 14.9944C5.48813 14.9907 5.49916 14.9835 5.5073 14.9736C5.89229 14.4761 6.23562 13.9505 6.52895 13.3984C6.54645 13.3663 6.52978 13.3278 6.49478 13.315C5.95646 13.1198 5.43487 12.8842 4.9348 12.6105C4.92582 12.6055 4.91825 12.5985 4.91277 12.5901C4.90729 12.5816 4.90408 12.572 4.90342 12.562C4.90276 12.5521 4.90467 12.5422 4.90898 12.5331C4.9133 12.524 4.91988 12.5162 4.92814 12.5102C5.03314 12.4355 5.13813 12.3577 5.23813 12.2799C5.24713 12.2729 5.25798 12.2684 5.26945 12.267C5.28093 12.2656 5.29259 12.2672 5.30313 12.2718C8.57558 13.6873 12.1197 13.6873 15.3538 12.2718C15.3644 12.267 15.3762 12.2651 15.3878 12.2664C15.3994 12.2676 15.4105 12.272 15.4196 12.2791C15.5196 12.3577 15.6238 12.4355 15.7296 12.5102C15.738 12.516 15.7447 12.5238 15.7491 12.5328C15.7536 12.5418 15.7556 12.5517 15.7552 12.5616C15.7547 12.5715 15.7516 12.5812 15.7463 12.5897C15.741 12.5983 15.7335 12.6054 15.7246 12.6105C15.2263 12.8865 14.708 13.12 14.1638 13.3142C14.1555 13.3171 14.1479 13.3217 14.1415 13.3277C14.1351 13.3337 14.1302 13.3409 14.1269 13.3489C14.1237 13.3568 14.1223 13.3654 14.1227 13.3739C14.1232 13.3825 14.1256 13.3908 14.1297 13.3984C14.4297 13.9497 14.773 14.4745 15.1505 14.9728C15.1583 14.983 15.1693 14.9907 15.1818 14.9947C15.1943 14.9987 15.2078 14.9989 15.2205 14.9953C17.0158 14.475 18.7068 13.6663 20.2221 12.6032C20.2295 12.5983 20.2357 12.5918 20.2403 12.5843C20.2449 12.5769 20.2478 12.5685 20.2487 12.5599C20.6654 8.47234 19.5504 4.9208 17.2913 1.77368C17.2857 1.76345 17.2766 1.75548 17.2655 1.75121ZM7.01811 10.4062C6.03312 10.4062 5.22063 9.5484 5.22063 8.49641C5.22063 7.44363 6.01729 6.58664 7.01811 6.58664C8.02643 6.58664 8.83141 7.45085 8.81558 8.49641C8.81558 9.5492 8.01893 10.4062 7.01811 10.4062ZM13.6638 10.4062C12.678 10.4062 11.8664 9.5484 11.8664 8.49641C11.8664 7.44363 12.6622 6.58664 13.6638 6.58664C14.6722 6.58664 15.4771 7.45085 15.4613 8.49641C15.4613 9.5492 14.673 10.4062 13.6638 10.4062Z" fill="#080808"/>
</svg>
