<svg width="51" height="50" viewBox="0 0 51 50" fill="none" xmlns="http://www.w3.org/2000/svg">
<path fill-rule="evenodd" clip-rule="evenodd" d="M20.001 3.33338V0H16.6676V3.33338L10.0008 3.33338V6.66676H6.66746V10.0001H3.33408V16.6669H0.000701904V23.3337H3.33408L3.33408 26.667H0.000701904V33.3338H3.33408L3.33408 36.6672H6.66746V43.3339H13.3342V46.6673H16.6676V50.0007H23.3344V46.6673H30.0011V50.0007H36.6679V46.6673H40.0013V43.3339H43.3346V36.6672H46.668V30.0004H50.0014V16.6669H46.668V13.3335H43.3346V6.66676H40.0013V3.33338H33.3345V0H26.6677V3.33338H20.001ZM3.33408 26.667H6.66746V30.0004H3.33408V26.667Z" fill="#A5FA00"/>
</svg>
