<svg width="78" height="78" viewBox="0 0 78 78" fill="none" xmlns="http://www.w3.org/2000/svg">
<g filter="url(#filter0_d_481_4095)">
<path fill-rule="evenodd" clip-rule="evenodd" d="M35.5 22.5V20H33V22.5L28 22.5V25H25.5V27.5H23V32.5H20.5V37.5H23L23 40H20.5V45H23L23 47.5H25.5V52.5H30.5V55H33V57.5H38V55H43V57.5H48V55H50.5V52.5H53V47.5H55.5V42.5H58V32.5H55.5V30H53V25H50.5V22.5H45.5V20H40.5V22.5H35.5ZM23 40H25.5V42.5H23V40Z" fill="#A5FA00"/>
<path d="M44.6981 34.0633C43.7418 33.648 42.7169 33.3411 41.645 33.1666C41.6355 33.1648 41.6256 33.1659 41.6167 33.1698C41.6079 33.1737 41.6005 33.1801 41.5956 33.1882C41.4644 33.4103 41.3182 33.6998 41.2157 33.9285C40.0789 33.7649 38.9232 33.7649 37.7864 33.9285C37.6722 33.675 37.5435 33.4279 37.4008 33.1882C37.3959 33.18 37.3886 33.1735 37.3798 33.1694C37.371 33.1653 37.3611 33.1639 37.3514 33.1654C36.2802 33.3399 35.2552 33.6468 34.2984 34.0627C34.2901 34.066 34.2831 34.0717 34.2784 34.0789C32.3334 36.8322 31.8003 39.5175 32.0622 42.1691C32.0629 42.1756 32.065 42.1819 32.0683 42.1875C32.0717 42.1932 32.0762 42.1982 32.0815 42.2022C33.2168 42.998 34.4829 43.6043 35.8271 43.9956C35.8364 43.9984 35.8465 43.9984 35.8558 43.9956C35.8652 43.9928 35.8735 43.9873 35.8796 43.9799C36.1683 43.6068 36.4258 43.2126 36.6458 42.7986C36.6589 42.7745 36.6464 42.7456 36.6202 42.736C36.2164 42.5896 35.8252 42.4129 35.4502 42.2076C35.4435 42.2039 35.4378 42.1986 35.4337 42.1923C35.4296 42.186 35.4272 42.1787 35.4267 42.1713C35.4262 42.1638 35.4276 42.1564 35.4308 42.1496C35.4341 42.1428 35.439 42.1369 35.4452 42.1324C35.5239 42.0764 35.6027 42.018 35.6777 41.9597C35.6844 41.9544 35.6926 41.9511 35.7012 41.95C35.7098 41.9489 35.7185 41.9502 35.7264 41.9536C38.1807 43.0152 40.8388 43.0152 43.2643 41.9536C43.2723 41.95 43.2811 41.9486 43.2898 41.9495C43.2986 41.9505 43.3068 41.9538 43.3137 41.959C43.3887 42.018 43.4668 42.0764 43.5462 42.1324C43.5525 42.1368 43.5575 42.1426 43.5608 42.1493C43.5642 42.1561 43.5657 42.1635 43.5653 42.171C43.565 42.1784 43.5627 42.1857 43.5587 42.192C43.5547 42.1984 43.5491 42.2038 43.5425 42.2076C43.1687 42.4146 42.78 42.5897 42.3719 42.7354C42.3656 42.7376 42.3599 42.741 42.3551 42.7455C42.3504 42.75 42.3466 42.7554 42.3442 42.7614C42.3418 42.7674 42.3407 42.7738 42.3411 42.7802C42.3414 42.7866 42.3432 42.7929 42.3463 42.7986C42.5712 43.212 42.8287 43.6056 43.1119 43.9793C43.1177 43.987 43.1259 43.9927 43.1353 43.9958C43.1447 43.9988 43.1549 43.9989 43.1644 43.9962C44.5108 43.606 45.779 42.9994 46.9155 42.2022C46.921 42.1984 46.9257 42.1936 46.9291 42.188C46.9326 42.1824 46.9348 42.1762 46.9355 42.1697C47.248 39.1041 46.4118 36.4404 44.7174 34.0801C44.7133 34.0725 44.7064 34.0665 44.6981 34.0633ZM37.0127 40.5544C36.2739 40.5544 35.6646 39.9111 35.6646 39.1221C35.6646 38.3325 36.2621 37.6898 37.0127 37.6898C37.7689 37.6898 38.3726 38.3379 38.3607 39.1221C38.3607 39.9117 37.7633 40.5544 37.0127 40.5544ZM41.9969 40.5544C41.2575 40.5544 40.6488 39.9111 40.6488 39.1221C40.6488 38.3325 41.2457 37.6898 41.9969 37.6898C42.7531 37.6898 43.3568 38.3379 43.345 39.1221C43.345 39.9117 42.7537 40.5544 41.9969 40.5544Z" fill="#080808"/>
</g>
<defs>
<filter id="filter0_d_481_4095" x="0.5" y="0" width="77.5" height="77.5" filterUnits="userSpaceOnUse" color-interpolation-filters="sRGB">
<feFlood flood-opacity="0" result="BackgroundImageFix"/>
<feColorMatrix in="SourceAlpha" type="matrix" values="0 0 0 0 0 0 0 0 0 0 0 0 0 0 0 0 0 0 127 0" result="hardAlpha"/>
<feOffset/>
<feGaussianBlur stdDeviation="10"/>
<feComposite in2="hardAlpha" operator="out"/>
<feColorMatrix type="matrix" values="0 0 0 0 0.647059 0 0 0 0 0.980392 0 0 0 0 0 0 0 0 0.4 0"/>
<feBlend mode="normal" in2="BackgroundImageFix" result="effect1_dropShadow_481_4095"/>
<feBlend mode="normal" in="SourceGraphic" in2="effect1_dropShadow_481_4095" result="shape"/>
</filter>
</defs>
</svg>
