<svg width="482" height="140" viewBox="0 0 482 140" fill="none" xmlns="http://www.w3.org/2000/svg">
<g filter="url(#filter0_d_264_53389)">
<path fill-rule="evenodd" clip-rule="evenodd" d="M91.7779 31.3335H46.3112V37.5335H42.8668V43.032H37.7728V43.0446H32.5335V48.5557H27.0223V53.8714H26.9315V59.5779H21.5112V69.9113H26.9315V80.9335H21.5112V86.4446H27.0223V97.4668H32.5335V102.978H38.0446V107.8H46.3112V113.311H74.5557V107.456H86.6112V113.311H80.7557V119.279H86.7232V113.311H91.7779V31.3335ZM35.289 64.7138H33.9112V64.7125H35.289V64.7138Z" fill="#A5FA00"/>
<rect x="89" y="31" width="303" height="82" fill="#A5FA00"/>
<path fill-rule="evenodd" clip-rule="evenodd" d="M428.322 31.3335H391V113.311H420.028V107.8H423.484V113.311H433.852V107.8H439.381V102.978H450.439V91.9557H455.968V86.3943H461.267V75.5532H455.968V64.7123H461.267V53.8712H455.968V48.5557H455.828V48.4514H450.439V43.0446H439.514V43.0317H439.381V37.5335H428.322V31.3335ZM423.484 102.978H428.322V107.8H423.484V102.978Z" fill="#A5FA00"/>
<path d="M450.39 37.609H455.828V43.0295H450.39V37.609Z" fill="#A5FA00"/>
<path d="M318.559 21H323.98V26.4205H318.559V21Z" fill="#A5FA00"/>
<path d="M306.624 25.4756V31.4431H294.689V25.4756H306.624Z" fill="#A5FA00"/>
<path d="M161.263 75.9555C161.263 68.7555 150.062 70.3555 150.062 66.3555C150.062 64.7555 150.863 63.1555 154.062 63.1555C157.263 63.1555 160.463 64.7555 160.463 64.7555V61.5555C160.463 61.5555 158.063 59.9555 154.062 59.9555C150.062 59.9555 146.863 62.3555 146.863 66.3555C146.863 73.5555 158.063 71.9555 158.063 75.9555C158.063 77.5555 157.263 79.1555 154.062 79.1555C150.863 79.1555 147.663 77.5555 147.663 77.5555V80.7555C147.663 80.7555 150.062 82.3555 154.062 82.3555C158.063 82.3555 161.263 79.9555 161.263 75.9555ZM173.269 69.5555V66.3555H168.469V59.9555H165.269V66.3555H162.069V69.5555H165.269V77.5555C165.269 80.7555 166.869 82.3555 170.069 82.3555H173.269V79.1555H168.469V69.5555H173.269ZM187.675 66.3555V72.7555C187.675 68.7555 186.075 66.3555 182.875 66.3555C178.875 66.3555 175.675 69.5555 175.675 74.3555C175.675 79.1555 178.875 82.3555 182.875 82.3555C186.075 82.3555 187.675 79.9555 187.675 75.9555V82.3555H190.875V66.3555H187.675ZM183.675 79.1555C181.275 79.1555 178.875 77.5555 178.875 74.3555C178.875 71.1555 181.275 69.5555 183.675 69.5555C186.075 69.5555 187.675 71.1555 187.675 74.3555C187.675 77.5555 186.075 79.1555 183.675 79.1555ZM197.269 72.7555V66.3555H194.069V82.3555H197.269V74.3555C197.269 70.3555 200.469 69.5555 203.669 69.5555V66.3555C199.669 66.3555 197.269 68.7555 197.269 72.7555ZM216.488 69.5555V66.3555H211.688V59.9555H208.488V66.3555H205.288V69.5555H208.488V77.5555C208.488 80.7555 210.088 82.3555 213.288 82.3555H216.488V79.1555H211.688V69.5555H216.488ZM243.7 59.9555H240.5L234.9 67.1555L229.3 59.9555H226.1V82.3555H229.3V64.7555L234.9 71.9555L240.5 64.7555V82.3555H243.7V59.9555ZM253.312 59.9555H250.113V63.1555H253.312V59.9555ZM253.312 79.1555V66.3555H246.913V69.5555H250.113V79.1555H246.913V82.3555H256.513V79.1555H253.312ZM268.525 66.3555C265.325 66.3555 262.925 68.7555 262.925 72.7555V66.3555H259.725V82.3555H262.925V74.3555C262.925 71.1555 264.525 69.5555 266.925 69.5555C269.325 69.5555 270.925 71.1555 270.925 74.3555V82.3555H274.125V72.7555C274.125 68.7555 271.725 66.3555 268.525 66.3555ZM286.925 69.5555V66.3555H282.125V59.9555H278.925V66.3555H275.725V69.5555H278.925V77.5555C278.925 80.7555 280.525 82.3555 283.725 82.3555H286.925V79.1555H282.125V69.5555H286.925ZM296.531 59.9555H293.331V63.1555H296.531V59.9555ZM296.531 79.1555V66.3555H290.131V69.5555H293.331V79.1555H290.131V82.3555H299.731V79.1555H296.531ZM311.744 66.3555C308.544 66.3555 306.144 68.7555 306.144 72.7555V66.3555H302.944V82.3555H306.144V74.3555C306.144 71.1555 307.744 69.5555 310.144 69.5555C312.544 69.5555 314.144 71.1555 314.144 74.3555V82.3555H317.344V72.7555C317.344 68.7555 314.944 66.3555 311.744 66.3555ZM333.338 66.3555H326.938C322.938 66.3555 319.738 69.5555 319.738 73.5555C319.738 77.5555 322.938 80.7555 326.938 80.7555C328.09 80.7555 329.242 80.5635 330.138 80.3715V82.3555C330.138 83.9555 329.338 85.5555 326.938 85.5555C324.538 85.5555 322.138 82.3555 322.138 82.3555V86.3555C322.138 86.3555 323.738 88.7555 326.938 88.7555C330.938 88.7555 333.338 86.3555 333.338 82.3555V66.3555ZM326.938 77.5555C324.538 77.5555 322.938 75.9555 322.938 73.5555C322.938 71.1555 324.538 69.5555 326.938 69.5555H330.138V77.1075C329.114 77.3315 327.802 77.5555 326.938 77.5555Z" fill="#080808"/>
</g>
<defs>
<filter id="filter0_d_264_53389" x="0.844563" y="0.333332" width="481.089" height="139.612" filterUnits="userSpaceOnUse" color-interpolation-filters="sRGB">
<feFlood flood-opacity="0" result="BackgroundImageFix"/>
<feColorMatrix in="SourceAlpha" type="matrix" values="0 0 0 0 0 0 0 0 0 0 0 0 0 0 0 0 0 0 127 0" result="hardAlpha"/>
<feOffset/>
<feGaussianBlur stdDeviation="10.3333"/>
<feComposite in2="hardAlpha" operator="out"/>
<feColorMatrix type="matrix" values="0 0 0 0 0.647059 0 0 0 0 0.980392 0 0 0 0 0 0 0 0 0.5 0"/>
<feBlend mode="normal" in2="BackgroundImageFix" result="effect1_dropShadow_264_53389"/>
<feBlend mode="normal" in="SourceGraphic" in2="effect1_dropShadow_264_53389" result="shape"/>
</filter>
</defs>
</svg>
