<svg width="44" height="45" viewBox="0 0 44 45" fill="none" xmlns="http://www.w3.org/2000/svg">
<path fill-rule="evenodd" clip-rule="evenodd" d="M44 27.398L44 15.6647L41.0667 15.6647L41.0667 12.7314L38.1333 12.7314L38.1333 6.86471L35.2 6.86471L35.2 3.93138L29.3333 3.93138L29.3333 0.998046L23.4667 0.998046L23.4667 3.93138L17.6 3.93138L17.6 0.998046L14.6667 0.998046L14.6667 3.93138L8.8 3.93138L8.8 6.86471L5.86667 6.86471L5.86667 9.79804L2.93333 9.79804L2.93333 15.6647L-6.411e-07 15.6647L-8.9754e-07 21.5314L2.93333 21.5314L2.93333 24.4647L-1.02576e-06 24.4647L-1.2822e-06 30.3314L2.93333 30.3314L2.93333 33.2647L5.86667 33.2647L5.86667 39.1314L11.7333 39.1314L11.7333 42.0647L14.6667 42.0647L14.6667 44.998L20.5333 44.998L20.5333 42.0647L26.4 42.0647L26.4 44.998L32.2667 44.998L32.2667 42.0647L35.2 42.0647L35.2 39.1314L38.1333 39.1314L38.1333 42.0647L41.0667 42.0647L41.0667 39.1314L38.1333 39.1314L38.1333 33.2647L41.0667 33.2647L41.0667 27.398L44 27.398ZM2.93333 24.4647L5.86667 24.4647L5.86667 27.398L2.93333 27.398L2.93333 24.4647Z" fill="#A5FA00"/>
</svg>
