<svg width="50" height="50" viewBox="0 0 50 50" fill="none" xmlns="http://www.w3.org/2000/svg">
<g clip-path="url(#clip0_449_58654)">
<path fill-rule="evenodd" clip-rule="evenodd" d="M30.0004 0H16.6669V3.33338H13.3335V6.66676H6.66676V10.0001H3.33338V16.6669H0V23.3337H3.33338V30.0004H0V33.3338H3.33338V40.0006H6.66676V43.3339H10.0001V46.6673H16.6669V50.0007H23.3337V46.6673H26.667V50.0007H33.3338V46.6673H36.6672V43.3339H43.3339V36.6672H46.6673V33.3338H50.0007V26.667H46.6673V20.0003H50.0007V13.3335H46.6673V10.0001H43.3339V6.66676H46.6673V3.33338H43.3339V6.66676H36.6672V3.33338H30.0004V0ZM26.667 46.6673V43.3339H30.0004V46.6673H26.667Z" fill="#A5FA00"/>
</g>
<defs>
<clipPath id="clip0_449_58654">
<rect width="50.0007" height="50.0007" fill="white"/>
</clipPath>
</defs>
</svg>
