<svg width="104" height="104" viewBox="0 0 104 104" fill="none" xmlns="http://www.w3.org/2000/svg">
<g filter="url(#filter0_d_402_2167)">
<path d="M60.3338 27V30.3334H67.0006V33.6668H70.3339V37.0001H73.6673V43.6669H77.0007V47.0003H73.6673V53.667H77.0007V60.3338H73.6673V67.0006H70.3339V70.3339H63.6672V73.6673H60.3338V77.0007H47.0003V73.6673H40.3335V70.3339H33.6668V67.0006H30.3334L30.3334 63.6672H27V57.0004H30.3334L30.3334 50.3337H27V43.6669H30.3334L30.3334 40.3335H33.6668V33.6668H40.3335V30.3334L43.6669 30.3334V27H50.3337V30.3334H47.0003V33.6668H50.3337V30.3334L53.667 30.3334V27H60.3338Z" fill="#A5FA00"/>
<path d="M33.6668 70.3339V73.6673H30.3334L30.3334 70.3339H33.6668Z" fill="#A5FA00"/>
<path d="M63.4449 45.4447C62.6098 45.807 61.7265 46.0466 60.8227 46.1558C61.7762 45.5862 62.4908 44.69 62.8338 43.6336C61.9378 44.167 60.9569 44.5428 59.9338 44.7447C59.2499 44.0031 58.3393 43.5095 57.3446 43.3412C56.35 43.1729 55.3277 43.3395 54.4379 43.8149C53.5482 44.2903 52.8414 45.0475 52.4284 45.9679C52.0154 46.8882 51.9196 47.9196 52.1559 48.9003C50.3441 48.8087 48.5719 48.3369 46.9543 47.5157C45.3368 46.6945 43.9101 45.5421 42.7669 44.1336C42.3659 44.8338 42.1552 45.6267 42.1558 46.4336C42.1543 47.1829 42.3382 47.921 42.691 48.582C43.0439 49.2431 43.5547 49.8067 44.178 50.2226C43.4535 50.2028 42.7445 50.0084 42.1113 49.6559V49.7114C42.1167 50.7613 42.4846 51.7771 43.1528 52.587C43.8209 53.3969 44.7483 53.9511 45.778 54.1559C45.3816 54.2766 44.9701 54.3402 44.5558 54.3448C44.269 54.3415 43.9829 54.3155 43.7002 54.2671C43.9935 55.1702 44.5609 55.9595 45.3237 56.525C46.0864 57.0906 47.0065 57.4044 47.9558 57.4227C46.3527 58.6841 44.3734 59.3725 42.3335 59.3782C41.9621 59.3795 41.591 59.3572 41.2224 59.3116C43.3051 60.6563 45.7323 61.3702 48.2114 61.3671C49.9222 61.3849 51.6194 61.0616 53.2038 60.4161C54.7883 59.7706 56.2282 58.8159 57.4395 57.6076C58.6509 56.3994 59.6093 54.9619 60.2589 53.3792C60.9084 51.7964 61.2361 50.1 61.2227 48.3892C61.2227 48.2003 61.2227 48.0003 61.2227 47.8003C62.0946 47.1501 62.8466 46.353 63.4449 45.4447Z" fill="#080808"/>
</g>
<defs>
<filter id="filter0_d_402_2167" x="0.33296" y="0.33296" width="103.335" height="103.335" filterUnits="userSpaceOnUse" color-interpolation-filters="sRGB">
<feFlood flood-opacity="0" result="BackgroundImageFix"/>
<feColorMatrix in="SourceAlpha" type="matrix" values="0 0 0 0 0 0 0 0 0 0 0 0 0 0 0 0 0 0 127 0" result="hardAlpha"/>
<feOffset/>
<feGaussianBlur stdDeviation="13.3335"/>
<feComposite in2="hardAlpha" operator="out"/>
<feColorMatrix type="matrix" values="0 0 0 0 0.647059 0 0 0 0 0.980392 0 0 0 0 0 0 0 0 0.4 0"/>
<feBlend mode="normal" in2="BackgroundImageFix" result="effect1_dropShadow_402_2167"/>
<feBlend mode="normal" in="SourceGraphic" in2="effect1_dropShadow_402_2167" result="shape"/>
</filter>
</defs>
</svg>
