<svg width="50" height="50" viewBox="0 0 50 50" fill="none" xmlns="http://www.w3.org/2000/svg">
<path d="M33.3338 0V3.33338H40.0006V6.66676H43.3339V10.0001H46.6673V16.6669H50.0007V20.0003H46.6673V26.667H50.0007V33.3338H46.6673V40.0006H43.3339V43.3339H36.6672V46.6673H33.3338V50.0007H20.0003V46.6673H13.3335V43.3339H6.66676V40.0006H3.33338L3.33338 36.6672H0V30.0004H3.33338L3.33338 23.3337H0V16.6669H3.33338L3.33338 13.3335H6.66676V6.66676H13.3335V3.33338L16.6669 3.33338V0H23.3337V3.33338H20.0003V6.66676H23.3337V3.33338L26.667 3.33338V0H33.3338Z" fill="#A5FA00"/>
<path d="M6.66676 43.3339V46.6673H3.33338L3.33338 43.3339H6.66676Z" fill="#A5FA00"/>
</svg>
